<svg id="Layer_1" data-name="Layer 1" xmlns="http://www.w3.org/2000/svg" xmlns:xlink="http://www.w3.org/1999/xlink" viewBox="0 0 336 100"><defs><style>.cls-1{fill:#fff;}.cls-2{font-size:86.36px;fill:#1d1d1b;font-family:Optima-Regular, Optima;}.cls-3{letter-spacing:-0.07em;}.cls-4{letter-spacing:0em;}.cls-5{fill:url(#radial-gradient);}.cls-6{fill:url(#linear-gradient);}.cls-7{fill:url(#linear-gradient-2);}.cls-8{fill:url(#linear-gradient-3);}.cls-9{fill:url(#linear-gradient-4);}</style><radialGradient id="radial-gradient" cx="299.6" cy="-65.75" r="1.9" gradientTransform="translate(-6107.01 210.6) scale(20.52 1.94)" gradientUnits="userSpaceOnUse"><stop offset="0" stop-color="#c4d3dd"/><stop offset="0.3" stop-color="#dde5eb"/><stop offset="0.68" stop-color="#f6f8fa"/><stop offset="0.91" stop-color="#fff"/></radialGradient><linearGradient id="linear-gradient" x1="38.97" y1="64.04" x2="38.97" y2="13.47" gradientUnits="userSpaceOnUse"><stop offset="0" stop-color="#0064b0"/><stop offset="1" stop-color="#89d2f6"/></linearGradient><linearGradient id="linear-gradient-2" x1="38.97" y1="83.1" x2="38.97" gradientUnits="userSpaceOnUse"><stop offset="0.01" stop-color="#5c5c5b"/><stop offset="0.39" stop-color="#8b8b8b"/><stop offset="0.8" stop-color="#b9b9b8"/><stop offset="1" stop-color="#cacaca"/></linearGradient><linearGradient id="linear-gradient-3" x1="39.01" y1="78.58" x2="38.13" y2="4.06" gradientUnits="userSpaceOnUse"><stop offset="0" stop-color="#dcdcdc"/><stop offset="0.32" stop-color="#ebebeb"/><stop offset="0.83" stop-color="#fff"/></linearGradient><linearGradient id="linear-gradient-4" x1="39.49" y1="78.57" x2="38.61" y2="4.06" xlink:href="#linear-gradient-3"/></defs><title>tmoy-logo-336x100</title><polygon class="cls-1" points="11.67 35.74 16.13 19.18 26.41 8.8 41.97 6.89 52.35 9.53 60.99 17.63 65.63 33.1 65.27 39.56 61.08 50.12 53.44 58.03 39.61 71.22 26.96 59.85 14.31 45.56 11.67 35.74"/><text class="cls-2" transform="translate(92.43 76.86)">TM<tspan class="cls-3" x="124.79" y="0">O</tspan><tspan class="cls-4" x="190.34" y="0">Y</tspan></text><path class="cls-5" d="M78,83.1c0,2-17.45,3.69-39,3.69S0,85.13,0,83.1s17.45-3.68,39-3.68S78,81.06,78,83.1Z"/><path class="cls-6" d="M53.78,19.61c-.25-.25-.52-.5-.78-.74a19.89,19.89,0,0,0-3.26-2.42,20.92,20.92,0,0,0-21.53,0h0a20.49,20.49,0,0,0-3.27,2.42c-.26.24-.53.49-.78.74a20.93,20.93,0,0,0,0,29.62l.78.79,1.64,1.62,1.64,1.64L39,64,49.74,53.28l1.58-1.64L53,50l.78-.79A20.93,20.93,0,0,0,53.78,19.61Z"/><path class="cls-1" d="M35.41,25.88q-2.11,0-4.42,0t-4.62.16q-2.31.12-4.46.28t-3.85.41a9.84,9.84,0,0,0,.41-2.59,11.2,11.2,0,0,0-.41-2.51q5.35.16,10.45.28T39,22.07q5.35,0,10.45-.12t10.45-.28a11.26,11.26,0,0,0-.41,2.59,9.57,9.57,0,0,0,.41,2.51q-1.7-.24-3.85-.41t-4.46-.28Q49.27,26,47,25.92t-4.42,0q-.24,8.35-.24,16.78V56.59q0,5.35.2,10.54t.45,10.21q-1.86-.16-4-.16t-4,.16q.24-5,.45-10.21t.2-10.54V42.66Q35.65,34.23,35.41,25.88Z"/><path class="cls-7" d="M39,83.1,14.62,58.76A34.42,34.42,0,0,1,63.31,10.08a34.42,34.42,0,0,1,0,48.68ZM39,9.26a25.16,25.16,0,0,0-17.8,43L39,70l17.79-17.8A25.16,25.16,0,0,0,39,9.26Z"/><polygon class="cls-8" points="38.98 77.18 37.57 75.78 38.2 75.15 38.98 75.93 39.76 75.15 40.38 75.78 38.98 77.18"/><path class="cls-9" d="M35.36,73.57l-2.21-2.21.62-.62L36,72.94Zm7.25,0L42,72.92l2.21-2.21.62.62ZM30.94,69.15l-2.21-2.21.62-.62,2.21,2.21Zm16.09,0-.62-.62,2.21-2.21.62.62ZM26.52,64.73l-2.21-2.21.62-.62,2.21,2.21Zm24.93,0-.62-.62L53,61.87l.62.62ZM22.1,60.31,19.89,58.1l.62-.62,2.21,2.21Zm33.77,0-.62-.62,2.21-2.21.62.62ZM17.68,55.89l-.09-.09c-.72-.72-1.4-1.47-2-2.25l.68-.56c.62.76,1.28,1.49,2,2.19l.09.09Zm42.61,0-.62-.62.06-.06a29.77,29.77,0,0,0,2-2.22l.68.56a30.5,30.5,0,0,1-2.07,2.28ZM13.67,51a30.22,30.22,0,0,1-1.6-2.74l.78-.4a29.22,29.22,0,0,0,1.55,2.66Zm50.62,0-.74-.48a29.32,29.32,0,0,0,1.55-2.66l.78.4A30.2,30.2,0,0,1,64.29,51ZM10.77,45.36a30.27,30.27,0,0,1-1-3l.85-.23a29.33,29.33,0,0,0,1,2.92Zm56.41,0L66.36,45a29.39,29.39,0,0,0,1-2.93l.85.23A30.36,30.36,0,0,1,67.18,45.32ZM9.12,39.25a30.62,30.62,0,0,1-.34-3.15l.88,0A29.57,29.57,0,0,0,10,39.11Zm59.71,0L68,39.07A29.54,29.54,0,0,0,68.28,36l.88,0A30.42,30.42,0,0,1,68.83,39.21ZM9.65,33l-.88,0a30.47,30.47,0,0,1,.32-3.15l.87.13A29.57,29.57,0,0,0,9.65,33Zm58.64,0A29.26,29.26,0,0,0,68,29.87l.87-.14a30.34,30.34,0,0,1,.32,3.15Zm-57.7-6-.85-.23a30.29,30.29,0,0,1,1-3l.82.31A29.43,29.43,0,0,0,10.59,26.89Zm56.75,0a29.41,29.41,0,0,0-.95-2.93l.82-.31a30.29,30.29,0,0,1,1,3ZM12.77,21.15l-.79-.4A30.1,30.1,0,0,1,13.57,18l.74.48A29.18,29.18,0,0,0,12.77,21.15Zm52.37,0a29.31,29.31,0,0,0-1.54-2.67l.74-.48a30.19,30.19,0,0,1,1.58,2.75ZM16.11,16l-.69-.55a30.75,30.75,0,0,1,2.12-2.36l.62.62A29.74,29.74,0,0,0,16.11,16ZM61.8,16a29.7,29.7,0,0,0-2.06-2.29l.62-.62a30.53,30.53,0,0,1,2.12,2.35ZM20.45,11.64,19.9,11a30.16,30.16,0,0,1,2.56-1.87l.48.74A29.36,29.36,0,0,0,20.45,11.64Zm37,0A29.2,29.2,0,0,0,55,9.8l.48-.74A30.36,30.36,0,0,1,58,10.93ZM25.6,8.28l-.4-.79A30.17,30.17,0,0,1,28.1,6.2l.32.82A29.41,29.41,0,0,0,25.6,8.28Zm26.7,0A29,29,0,0,0,49.49,7l.32-.82a30,30,0,0,1,2.9,1.29Zm-21-2.19-.23-.85a30.51,30.51,0,0,1,3.1-.66l.14.87A29.53,29.53,0,0,0,31.34,6.07Zm15.22,0a29.43,29.43,0,0,0-3-.64l.14-.87a30.44,30.44,0,0,1,3.1.65Zm-9.15-1,0-.88a30.45,30.45,0,0,1,3.17,0l0,.88A29.67,29.67,0,0,0,37.41,5.11Z"/></svg>